<mxfile host="app.diagrams.net" modified="2022-03-25T16:22:47.827Z" agent="5.0 (Windows NT 10.0; Win64; x64) AppleWebKit/537.36 (KHTML, like Gecko) Chrome/99.0.4844.82 Safari/537.36" etag="koz5cWrTch-N_FUxp7mS" version="17.2.3" type="github">
  <diagram id="9j0G7bMVRx-_YJAYNbYP" name="Page-1">
    <mxGraphModel dx="1888" dy="585" grid="1" gridSize="10" guides="1" tooltips="1" connect="1" arrows="1" fold="1" page="1" pageScale="1" pageWidth="850" pageHeight="1100" math="0" shadow="0">
      <root>
        <mxCell id="0" />
        <mxCell id="1" parent="0" />
        <mxCell id="NdbOdqvEnyCty6NQ_huQ-8" value="&lt;div style=&quot;text-align: left&quot;&gt;Action that doesn&#39;t happen in the front application&lt;/div&gt;" style="text;html=1;align=center;verticalAlign=middle;resizable=0;points=[];autosize=1;strokeColor=none;fillColor=none;" parent="1" vertex="1">
          <mxGeometry x="380" y="10" width="280" height="20" as="geometry" />
        </mxCell>
        <mxCell id="NdbOdqvEnyCty6NQ_huQ-58" style="edgeStyle=orthogonalEdgeStyle;rounded=0;orthogonalLoop=1;jettySize=auto;html=1;" parent="1" source="NdbOdqvEnyCty6NQ_huQ-10" target="NdbOdqvEnyCty6NQ_huQ-27" edge="1">
          <mxGeometry relative="1" as="geometry">
            <mxPoint x="170" y="80" as="targetPoint" />
            <Array as="points">
              <mxPoint x="160" y="80" />
              <mxPoint x="985" y="80" />
            </Array>
          </mxGeometry>
        </mxCell>
        <mxCell id="NdbOdqvEnyCty6NQ_huQ-10" value="" style="strokeWidth=1;shadow=0;dashed=0;align=center;html=1;shape=mxgraph.mockup.containers.browserWindow;rSize=0;strokeColor=#666666;strokeColor2=#008cff;strokeColor3=#c4c4c4;mainText=,;recursiveResize=0;" parent="1" vertex="1">
          <mxGeometry x="20" y="180" width="300" height="290" as="geometry" />
        </mxCell>
        <mxCell id="NdbOdqvEnyCty6NQ_huQ-11" value="Page 1" style="strokeWidth=1;shadow=0;dashed=0;align=center;html=1;shape=mxgraph.mockup.containers.anchor;fontSize=17;fontColor=#666666;align=left;" parent="NdbOdqvEnyCty6NQ_huQ-10" vertex="1">
          <mxGeometry x="60" y="12" width="110" height="26" as="geometry" />
        </mxCell>
        <mxCell id="NdbOdqvEnyCty6NQ_huQ-12" value="https://browser.com" style="strokeWidth=1;shadow=0;dashed=0;align=center;html=1;shape=mxgraph.mockup.containers.anchor;rSize=0;fontSize=17;fontColor=#666666;align=left;" parent="NdbOdqvEnyCty6NQ_huQ-10" vertex="1">
          <mxGeometry x="130" y="60" width="250" height="26" as="geometry" />
        </mxCell>
        <mxCell id="NdbOdqvEnyCty6NQ_huQ-15" value="Servers" style="text;html=1;align=center;verticalAlign=middle;resizable=0;points=[];autosize=1;strokeColor=none;fillColor=none;" parent="1" vertex="1">
          <mxGeometry x="954.5" y="80" width="60" height="20" as="geometry" />
        </mxCell>
        <mxCell id="NdbOdqvEnyCty6NQ_huQ-17" value="database" style="shape=datastore;whiteSpace=wrap;html=1;" parent="1" vertex="1">
          <mxGeometry x="1120" y="220" width="60" height="60" as="geometry" />
        </mxCell>
        <mxCell id="NdbOdqvEnyCty6NQ_huQ-30" style="edgeStyle=orthogonalEdgeStyle;rounded=0;orthogonalLoop=1;jettySize=auto;html=1;" parent="1" source="NdbOdqvEnyCty6NQ_huQ-20" target="NdbOdqvEnyCty6NQ_huQ-24" edge="1">
          <mxGeometry relative="1" as="geometry">
            <mxPoint x="890" y="210" as="targetPoint" />
            <Array as="points">
              <mxPoint x="870" y="250" />
              <mxPoint x="870" y="250" />
            </Array>
          </mxGeometry>
        </mxCell>
        <mxCell id="NdbOdqvEnyCty6NQ_huQ-32" style="edgeStyle=orthogonalEdgeStyle;rounded=0;orthogonalLoop=1;jettySize=auto;html=1;" parent="1" source="NdbOdqvEnyCty6NQ_huQ-20" target="NdbOdqvEnyCty6NQ_huQ-25" edge="1">
          <mxGeometry relative="1" as="geometry">
            <Array as="points">
              <mxPoint x="755" y="300" />
            </Array>
          </mxGeometry>
        </mxCell>
        <mxCell id="NdbOdqvEnyCty6NQ_huQ-33" style="edgeStyle=orthogonalEdgeStyle;rounded=0;orthogonalLoop=1;jettySize=auto;html=1;" parent="1" source="NdbOdqvEnyCty6NQ_huQ-20" target="NdbOdqvEnyCty6NQ_huQ-27" edge="1">
          <mxGeometry relative="1" as="geometry">
            <mxPoint x="890" y="170" as="targetPoint" />
            <Array as="points">
              <mxPoint x="755" y="180" />
            </Array>
          </mxGeometry>
        </mxCell>
        <mxCell id="NdbOdqvEnyCty6NQ_huQ-39" style="edgeStyle=orthogonalEdgeStyle;rounded=0;orthogonalLoop=1;jettySize=auto;html=1;" parent="1" source="NdbOdqvEnyCty6NQ_huQ-20" target="NdbOdqvEnyCty6NQ_huQ-22" edge="1">
          <mxGeometry relative="1" as="geometry" />
        </mxCell>
        <mxCell id="NdbOdqvEnyCty6NQ_huQ-20" value="" style="outlineConnect=0;dashed=0;verticalLabelPosition=bottom;verticalAlign=top;align=center;html=1;shape=mxgraph.aws3.classic_load_balancer;fillColor=#F58536;gradientColor=none;" parent="1" vertex="1">
          <mxGeometry x="694.5" y="200" width="120" height="80" as="geometry" />
        </mxCell>
        <mxCell id="NdbOdqvEnyCty6NQ_huQ-21" value="Load Balancer" style="text;html=1;align=center;verticalAlign=middle;resizable=0;points=[];autosize=1;strokeColor=none;fillColor=none;" parent="1" vertex="1">
          <mxGeometry x="700" y="150" width="90" height="20" as="geometry" />
        </mxCell>
        <mxCell id="NdbOdqvEnyCty6NQ_huQ-23" value="reverse proxy" style="text;html=1;align=center;verticalAlign=middle;resizable=0;points=[];autosize=1;strokeColor=none;fillColor=none;" parent="1" vertex="1">
          <mxGeometry x="550" y="170" width="90" height="20" as="geometry" />
        </mxCell>
        <mxCell id="NdbOdqvEnyCty6NQ_huQ-24" value="" style="image;html=1;image=img/lib/clip_art/computers/Server_128x128.png" parent="1" vertex="1">
          <mxGeometry x="944.5" y="180" width="80" height="80" as="geometry" />
        </mxCell>
        <mxCell id="NdbOdqvEnyCty6NQ_huQ-25" value="" style="image;html=1;image=img/lib/clip_art/computers/Server_128x128.png" parent="1" vertex="1">
          <mxGeometry x="944.5" y="250" width="80" height="80" as="geometry" />
        </mxCell>
        <mxCell id="NdbOdqvEnyCty6NQ_huQ-57" style="edgeStyle=orthogonalEdgeStyle;rounded=0;orthogonalLoop=1;jettySize=auto;html=1;entryX=0.86;entryY=-0.008;entryDx=0;entryDy=0;entryPerimeter=0;" parent="1" source="NdbOdqvEnyCty6NQ_huQ-27" target="NdbOdqvEnyCty6NQ_huQ-10" edge="1">
          <mxGeometry relative="1" as="geometry">
            <mxPoint x="310" y="120" as="targetPoint" />
            <Array as="points">
              <mxPoint x="278" y="120" />
            </Array>
          </mxGeometry>
        </mxCell>
        <mxCell id="NdbOdqvEnyCty6NQ_huQ-60" value="Response" style="edgeLabel;html=1;align=center;verticalAlign=middle;resizable=0;points=[];" parent="NdbOdqvEnyCty6NQ_huQ-57" vertex="1" connectable="0">
          <mxGeometry x="0.245" y="-9" relative="1" as="geometry">
            <mxPoint x="-18" y="-1" as="offset" />
          </mxGeometry>
        </mxCell>
        <mxCell id="NdbOdqvEnyCty6NQ_huQ-27" value="" style="image;html=1;image=img/lib/clip_art/computers/Server_128x128.png" parent="1" vertex="1">
          <mxGeometry x="944.5" y="110" width="80" height="80" as="geometry" />
        </mxCell>
        <mxCell id="NdbOdqvEnyCty6NQ_huQ-38" style="edgeStyle=orthogonalEdgeStyle;rounded=0;orthogonalLoop=1;jettySize=auto;html=1;entryX=0;entryY=0.5;entryDx=0;entryDy=0;entryPerimeter=0;" parent="1" source="NdbOdqvEnyCty6NQ_huQ-22" target="NdbOdqvEnyCty6NQ_huQ-20" edge="1">
          <mxGeometry relative="1" as="geometry" />
        </mxCell>
        <mxCell id="NdbOdqvEnyCty6NQ_huQ-41" style="edgeStyle=orthogonalEdgeStyle;rounded=0;orthogonalLoop=1;jettySize=auto;html=1;entryX=0;entryY=0.5;entryDx=0;entryDy=0;" parent="1" source="NdbOdqvEnyCty6NQ_huQ-22" target="NdbOdqvEnyCty6NQ_huQ-40" edge="1">
          <mxGeometry relative="1" as="geometry">
            <mxPoint x="870" y="410" as="targetPoint" />
            <Array as="points">
              <mxPoint x="570" y="400" />
            </Array>
          </mxGeometry>
        </mxCell>
        <mxCell id="NdbOdqvEnyCty6NQ_huQ-22" value="" style="sketch=0;pointerEvents=1;shadow=0;dashed=0;html=1;strokeColor=none;fillColor=#505050;labelPosition=center;verticalLabelPosition=bottom;verticalAlign=top;outlineConnect=0;align=center;shape=mxgraph.office.servers.reverse_proxy;" parent="1" vertex="1">
          <mxGeometry x="560" y="213.5" width="50" height="53" as="geometry" />
        </mxCell>
        <mxCell id="NdbOdqvEnyCty6NQ_huQ-36" value="" style="verticalLabelPosition=bottom;sketch=0;aspect=fixed;html=1;verticalAlign=top;strokeColor=none;align=center;outlineConnect=0;shape=mxgraph.citrix.proxy_server;" parent="1" vertex="1">
          <mxGeometry x="421.75" y="200" width="76.5" height="90" as="geometry" />
        </mxCell>
        <mxCell id="NdbOdqvEnyCty6NQ_huQ-37" value="Proxy Server" style="text;html=1;align=center;verticalAlign=middle;resizable=0;points=[];autosize=1;strokeColor=none;fillColor=none;" parent="1" vertex="1">
          <mxGeometry x="415" y="180" width="90" height="20" as="geometry" />
        </mxCell>
        <mxCell id="NdbOdqvEnyCty6NQ_huQ-42" style="edgeStyle=orthogonalEdgeStyle;rounded=0;orthogonalLoop=1;jettySize=auto;html=1;" parent="1" source="NdbOdqvEnyCty6NQ_huQ-40" target="NdbOdqvEnyCty6NQ_huQ-22" edge="1">
          <mxGeometry relative="1" as="geometry">
            <mxPoint x="570" y="400" as="targetPoint" />
            <Array as="points">
              <mxPoint x="570" y="400" />
            </Array>
          </mxGeometry>
        </mxCell>
        <mxCell id="NdbOdqvEnyCty6NQ_huQ-40" value="" style="image;html=1;image=img/lib/clip_art/computers/Server_128x128.png" parent="1" vertex="1">
          <mxGeometry x="944.5" y="340" width="80" height="80" as="geometry" />
        </mxCell>
        <mxCell id="NdbOdqvEnyCty6NQ_huQ-43" value="HTTP/2" style="text;html=1;align=center;verticalAlign=middle;resizable=0;points=[];autosize=1;strokeColor=none;fillColor=none;" parent="1" vertex="1">
          <mxGeometry x="430" y="490" width="60" height="20" as="geometry" />
        </mxCell>
        <mxCell id="NdbOdqvEnyCty6NQ_huQ-44" value="BACKEND" style="text;html=1;align=center;verticalAlign=middle;resizable=0;points=[];autosize=1;strokeColor=none;fillColor=none;" parent="1" vertex="1">
          <mxGeometry x="270" y="10" width="70" height="20" as="geometry" />
        </mxCell>
        <mxCell id="NdbOdqvEnyCty6NQ_huQ-46" value="" style="image;html=1;image=img/lib/clip_art/computers/Virtual_Application_128x128.png" parent="1" vertex="1">
          <mxGeometry x="390" y="680" width="240" height="180" as="geometry" />
        </mxCell>
        <mxCell id="NdbOdqvEnyCty6NQ_huQ-48" value="Application" style="text;html=1;align=center;verticalAlign=middle;resizable=0;points=[];autosize=1;strokeColor=none;fillColor=none;rounded=0;glass=0;sketch=0;" parent="1" vertex="1">
          <mxGeometry x="490" y="634.5" width="70" height="20" as="geometry" />
        </mxCell>
        <mxCell id="NdbOdqvEnyCty6NQ_huQ-49" value="Services" style="html=1;strokeColor=none;fillColor=#0079D6;labelPosition=center;verticalLabelPosition=middle;verticalAlign=top;align=center;fontSize=12;outlineConnect=0;spacingTop=-6;fontColor=#FFFFFF;sketch=0;shape=mxgraph.sitemap.services;rounded=0;glass=0;" parent="1" vertex="1">
          <mxGeometry x="780" y="654.5" width="120" height="70" as="geometry" />
        </mxCell>
        <mxCell id="NdbOdqvEnyCty6NQ_huQ-50" value="Services" style="html=1;strokeColor=none;fillColor=#0079D6;labelPosition=center;verticalLabelPosition=middle;verticalAlign=top;align=center;fontSize=12;outlineConnect=0;spacingTop=-6;fontColor=#FFFFFF;sketch=0;shape=mxgraph.sitemap.services;rounded=0;glass=0;" parent="1" vertex="1">
          <mxGeometry x="780" y="750" width="120" height="70" as="geometry" />
        </mxCell>
        <mxCell id="NdbOdqvEnyCty6NQ_huQ-51" value="Services" style="html=1;strokeColor=none;fillColor=#0079D6;labelPosition=center;verticalLabelPosition=middle;verticalAlign=top;align=center;fontSize=12;outlineConnect=0;spacingTop=-6;fontColor=#FFFFFF;sketch=0;shape=mxgraph.sitemap.services;rounded=0;glass=0;" parent="1" vertex="1">
          <mxGeometry x="780" y="850" width="120" height="70" as="geometry" />
        </mxCell>
        <mxCell id="NdbOdqvEnyCty6NQ_huQ-52" value="" style="shape=image;html=1;verticalAlign=top;verticalLabelPosition=bottom;labelBackgroundColor=#ffffff;imageAspect=0;aspect=fixed;image=https://cdn1.iconfinder.com/data/icons/nuvola2/48x48/actions/kgpg_identity.png;rounded=0;glass=0;sketch=0;" parent="1" vertex="1">
          <mxGeometry x="950" y="670" width="39" height="39" as="geometry" />
        </mxCell>
        <mxCell id="NdbOdqvEnyCty6NQ_huQ-53" value="gRPC&lt;br&gt;" style="text;html=1;align=center;verticalAlign=middle;resizable=0;points=[];autosize=1;strokeColor=none;fillColor=none;" parent="1" vertex="1">
          <mxGeometry x="939" y="775" width="50" height="20" as="geometry" />
        </mxCell>
        <mxCell id="NdbOdqvEnyCty6NQ_huQ-54" value="Django" style="text;html=1;align=center;verticalAlign=middle;resizable=0;points=[];autosize=1;strokeColor=none;fillColor=none;" parent="1" vertex="1">
          <mxGeometry x="944.5" y="875" width="50" height="20" as="geometry" />
        </mxCell>
        <mxCell id="NdbOdqvEnyCty6NQ_huQ-55" value="database" style="shape=datastore;whiteSpace=wrap;html=1;rounded=0;glass=0;sketch=0;" parent="1" vertex="1">
          <mxGeometry x="1070" y="670" width="230" height="220" as="geometry" />
        </mxCell>
        <mxCell id="NdbOdqvEnyCty6NQ_huQ-59" value="Request" style="text;html=1;align=center;verticalAlign=middle;resizable=0;points=[];autosize=1;strokeColor=none;fillColor=none;" parent="1" vertex="1">
          <mxGeometry x="470" y="60" width="60" height="20" as="geometry" />
        </mxCell>
        <mxCell id="NdbOdqvEnyCty6NQ_huQ-62" value="Internet Service provider" style="text;html=1;align=center;verticalAlign=middle;resizable=0;points=[];autosize=1;strokeColor=none;fillColor=none;" parent="1" vertex="1">
          <mxGeometry x="380" y="310" width="150" height="20" as="geometry" />
        </mxCell>
        <mxCell id="ZojGMi_m_xrzyHYrt0UD-1" value="&lt;font style=&quot;font-size: 18px&quot;&gt;Overview of backend infrastructure&lt;/font&gt;" style="text;html=1;align=center;verticalAlign=middle;resizable=0;points=[];autosize=1;strokeColor=none;fillColor=none;shadow=0;" vertex="1" parent="1">
          <mxGeometry x="-470" y="10" width="290" height="20" as="geometry" />
        </mxCell>
        <mxCell id="ZojGMi_m_xrzyHYrt0UD-2" value="&lt;span style=&quot;font-size: 12px&quot;&gt;server push&lt;/span&gt;" style="text;html=1;align=center;verticalAlign=middle;resizable=0;points=[];autosize=1;strokeColor=none;fillColor=none;fontSize=18;" vertex="1" parent="1">
          <mxGeometry x="520" y="465" width="80" height="30" as="geometry" />
        </mxCell>
        <mxCell id="ZojGMi_m_xrzyHYrt0UD-3" value="pipelining" style="text;html=1;align=center;verticalAlign=middle;resizable=0;points=[];autosize=1;strokeColor=none;fillColor=none;fontSize=12;" vertex="1" parent="1">
          <mxGeometry x="525" y="495" width="70" height="20" as="geometry" />
        </mxCell>
        <mxCell id="ZojGMi_m_xrzyHYrt0UD-4" value="1. Networking" style="text;html=1;align=center;verticalAlign=middle;resizable=0;points=[];autosize=1;strokeColor=none;fillColor=none;fontSize=12;" vertex="1" parent="1">
          <mxGeometry x="-470" y="60" width="90" height="20" as="geometry" />
        </mxCell>
        <mxCell id="ZojGMi_m_xrzyHYrt0UD-8" value="" style="edgeStyle=orthogonalEdgeStyle;rounded=0;orthogonalLoop=1;jettySize=auto;html=1;fontSize=12;" edge="1" parent="1" source="ZojGMi_m_xrzyHYrt0UD-5" target="ZojGMi_m_xrzyHYrt0UD-7">
          <mxGeometry relative="1" as="geometry" />
        </mxCell>
        <mxCell id="ZojGMi_m_xrzyHYrt0UD-5" value="2. Application" style="text;html=1;align=center;verticalAlign=middle;resizable=0;points=[];autosize=1;strokeColor=none;fillColor=none;fontSize=12;" vertex="1" parent="1">
          <mxGeometry x="-470" y="90" width="90" height="20" as="geometry" />
        </mxCell>
        <mxCell id="ZojGMi_m_xrzyHYrt0UD-6" value="3. Security" style="text;html=1;align=center;verticalAlign=middle;resizable=0;points=[];autosize=1;strokeColor=none;fillColor=none;fontSize=12;" vertex="1" parent="1">
          <mxGeometry x="-470" y="120" width="70" height="20" as="geometry" />
        </mxCell>
        <mxCell id="ZojGMi_m_xrzyHYrt0UD-10" value="" style="edgeStyle=orthogonalEdgeStyle;rounded=0;orthogonalLoop=1;jettySize=auto;html=1;fontSize=12;" edge="1" parent="1" source="ZojGMi_m_xrzyHYrt0UD-7" target="ZojGMi_m_xrzyHYrt0UD-9">
          <mxGeometry relative="1" as="geometry" />
        </mxCell>
        <mxCell id="ZojGMi_m_xrzyHYrt0UD-7" value="DevOps" style="text;html=1;align=center;verticalAlign=middle;resizable=0;points=[];autosize=1;strokeColor=none;fillColor=none;fontSize=12;" vertex="1" parent="1">
          <mxGeometry x="-285" y="90" width="60" height="20" as="geometry" />
        </mxCell>
        <mxCell id="ZojGMi_m_xrzyHYrt0UD-9" value="CI/CD" style="text;html=1;align=center;verticalAlign=middle;resizable=0;points=[];autosize=1;strokeColor=none;fillColor=none;fontSize=12;" vertex="1" parent="1">
          <mxGeometry x="-140" y="90" width="50" height="20" as="geometry" />
        </mxCell>
      </root>
    </mxGraphModel>
  </diagram>
</mxfile>
